<?xml version="1.0" encoding="iso-8859-1"?>
<!-- Generator: Adobe Illustrator 16.0.0, SVG Export Plug-In . SVG Version: 6.00 Build 0)  -->
<!DOCTYPE svg PUBLIC "-//W3C//DTD SVG 1.1//EN" "http://www.w3.org/Graphics/SVG/1.1/DTD/svg11.dtd">
<svg version="1.1" id="Capa_1" xmlns="http://www.w3.org/2000/svg" xmlns:xlink="http://www.w3.org/1999/xlink" x="0px" y="0px"
	 width="94px" height="94px" viewBox="0 0 94 94" style="enable-background:new 0 0 94 94;" xml:space="preserve">
<g>
	<g>
		<path d="M66.344,38.067c-2.559,0.339-4.67,1.604-6.658,3.127c-2.215,1.699-4.072,3.775-5.985,5.791
			c-0.257,0.269-0.144,0.41,0.045,0.623c1.346,1.506,2.733,2.969,4.31,4.236c2.614,2.105,5.444,3.725,8.895,4.045
			c3.886,0.359,7.031-1.457,8.421-4.979c0.481-1.219,0.685-2.489,0.69-3.978c0.015-0.37-0.047-0.919-0.115-1.467
			C75.33,40.581,71.217,37.423,66.344,38.067z"/>
		<path d="M34.313,41.194c-1.988-1.523-4.099-2.788-6.657-3.127c-4.873-0.645-8.986,2.514-9.601,7.399
			c-0.067,0.548-0.13,1.097-0.114,1.467c0.007,1.488,0.207,2.76,0.689,3.978c1.39,3.521,4.535,5.338,8.42,4.978
			c3.45-0.318,6.28-1.938,8.896-4.043c1.574-1.27,2.962-2.731,4.308-4.238c0.188-0.211,0.304-0.354,0.046-0.622
			C38.387,44.97,36.528,42.894,34.313,41.194z"/>
		<path d="M89,0H5C2.238,0,0,2.238,0,5v84c0,2.762,2.238,5,5,5h84c2.762,0,5-2.238,5-5V5C94,2.238,91.762,0,89,0z M84.729,54.703
			c-2.763,7.681-9.155,12.062-17.324,11.967c-4.979-0.059-9.228-1.986-13.104-4.929c-2.531-1.921-4.699-4.226-6.787-6.604
			c-0.314-0.359-0.488-0.535-0.829-0.248c-0.055,0.072-0.115,0.152-0.201,0.248c-2.086,2.379-4.254,4.684-6.786,6.604
			c-3.878,2.94-8.125,4.87-13.103,4.929c-8.171,0.096-14.563-4.286-17.324-11.967c-1.495-4.156-1.768-8.417-0.878-12.728
			c2.112-10.249,10.409-15.654,20.339-14.492c4.017,0.471,7.48,2.25,10.622,4.714c2.727,2.138,4.933,4.782,7.146,7.41
			c0.09,0.106,0.163,0.186,0.234,0.249c0.009,0.007,0.019,0.02,0.027,0.025c0.053,0.046,0.103,0.063,0.149,0.083
			c0.029,0.009,0.059,0.023,0.088,0.023c0.027,0,0.059-0.015,0.088-0.023c0.047-0.02,0.096-0.037,0.148-0.083
			c0.01-0.006,0.02-0.019,0.027-0.027c0.071-0.062,0.145-0.141,0.233-0.247c2.215-2.628,4.421-5.272,7.146-7.41
			c3.144-2.464,6.606-4.243,10.623-4.714c9.93-1.162,18.228,4.243,20.34,14.492C86.495,46.286,86.225,50.547,84.729,54.703z"/>
	</g>
</g>
<g>
</g>
<g>
</g>
<g>
</g>
<g>
</g>
<g>
</g>
<g>
</g>
<g>
</g>
<g>
</g>
<g>
</g>
<g>
</g>
<g>
</g>
<g>
</g>
<g>
</g>
<g>
</g>
<g>
</g>
</svg>
