<svg width="1600" height="1000" version="1.1" xmlns="http://www.w3.org/2000/svg"><path fill="rgb(217,60,78)" stroke="rgb(217,60,78)" stroke-width="1" opacity="1" d="M 0 0 L 9.5 0 L 10 0.5 L 10 1000 L 0.5 1000 L 0 999.5 L 0 0 Z "></path><path fill="rgb(217,60,78)" stroke="rgb(217,60,78)" stroke-width="1" opacity="1" d="M 306 0 L 313.5 0 L 314 0.5 L 314 1000 L 306.5 1000 L 306 999.5 L 306 0 Z "></path><path fill="rgb(217,60,78)" stroke="rgb(217,60,78)" stroke-width="1" opacity="1" d="M 316 0 L 319 0.5 L 319 1000 L 316 999.5 L 316 0 Z "></path><path fill="rgb(217,60,78)" stroke="rgb(217,60,78)" stroke-width="1" opacity="1" d="M 326 0 L 334.5 0 L 335 0.5 L 335 1000 L 326.5 1000 L 326 999.5 L 326 0 Z "></path><path fill="rgb(217,60,78)" stroke="rgb(217,60,78)" stroke-width="1" opacity="1" d="M 430 0 L 490.5 0 L 491 0.5 L 491 1000 L 430.5 1000 L 430 999.5 L 430 0 Z "></path><path fill="rgb(217,60,78)" stroke="rgb(217,60,78)" stroke-width="1" opacity="1" d="M 493 0 L 497 0.5 L 497 1000 L 493 999.5 L 493 0 Z "></path><path fill="rgb(217,60,78)" stroke="rgb(217,60,78)" stroke-width="1" opacity="1" d="M 755.5 0 L 756 999.5 L 755 999.5 L 755.5 0 Z "></path><path fill="rgb(217,60,78)" stroke="rgb(217,60,78)" stroke-width="1" opacity="1" d="M 757 0 L 759 0.5 L 759 1000 L 757 999.5 L 757 0 Z "></path><path fill="rgb(217,60,78)" stroke="rgb(217,60,78)" stroke-width="1" opacity="1" d="M 764 0 L 771.5 0 L 772 0.5 L 772 1000 L 764.5 1000 L 764 999.5 L 764 0 Z "></path><path fill="rgb(217,60,78)" stroke="rgb(217,60,78)" stroke-width="1" opacity="1" d="M 773 0 L 777 0.5 L 777 1000 L 773 999.5 L 773 0 Z "></path><path fill="rgb(217,60,78)" stroke="rgb(217,60,78)" stroke-width="1" opacity="1" d="M 883 0 L 890.5 0 L 891 0.5 L 891 1000 L 883.5 1000 L 883 999.5 L 883 0 Z "></path><path fill="rgb(217,60,78)" stroke="rgb(217,60,78)" stroke-width="1" opacity="1" d="M 893 0 L 953.5 0 L 954 0.5 L 954 1000 L 893.5 1000 L 893 999.5 L 893 0 Z "></path><path fill="rgb(217,60,78)" stroke="rgb(217,60,78)" stroke-width="1" opacity="1" d="M 1250 0 L 1257.5 0 L 1258 0.5 L 1258 1000 L 1250.5 1000 L 1250 999.5 L 1250 0 Z "></path><path fill="rgb(217,60,78)" stroke="rgb(217,60,78)" stroke-width="1" opacity="1" d="M 1260 0 L 1263 0.5 L 1263 1000 L 1260 999.5 L 1260 0 Z "></path><path fill="rgb(217,60,78)" stroke="rgb(217,60,78)" stroke-width="1" opacity="1" d="M 1270 0 L 1278.5 0 L 1279 0.5 L 1279 1000 L 1270.5 1000 L 1270 999.5 L 1270 0 Z "></path><path fill="rgb(217,60,78)" stroke="rgb(217,60,78)" stroke-width="1" opacity="1" d="M 1374 0 L 1434.5 0 L 1435 0.5 L 1435 1000 L 1374.5 1000 L 1374 999.5 L 1374 0 Z "></path><path fill="rgb(217,60,78)" stroke="rgb(217,60,78)" stroke-width="1" opacity="1" d="M 1437 0 L 1441 0.5 L 1441 1000 L 1437 999.5 L 1437 0 Z "></path><path fill="rgb(217,60,78)" stroke="rgb(217,60,78)" stroke-width="1" opacity="1" d="M 1522 0 L 1547.5 0 L 1548 0.5 L 1548 1000 L 1522.5 1000 L 1522 999.5 L 1522 0 Z "></path><path fill="rgb(244,206,60)" stroke="rgb(244,206,60)" stroke-width="1" opacity="1" d="M 107 0 L 112 0.5 L 112 1000 L 107 999.5 L 107 0 Z "></path><path fill="rgb(244,206,60)" stroke="rgb(244,206,60)" stroke-width="1" opacity="1" d="M 132.5 0 L 133 999.5 L 132 999.5 L 132.5 0 Z "></path><path fill="rgb(244,206,60)" stroke="rgb(244,206,60)" stroke-width="1" opacity="1" d="M 137 0 L 140 0.5 L 140 1000 L 137 999.5 L 137 0 Z "></path><path fill="rgb(244,206,60)" stroke="rgb(244,206,60)" stroke-width="1" opacity="1" d="M 252 0 L 255 0.5 L 255 1000 L 252 999.5 L 252 0 Z "></path><path fill="rgb(244,206,60)" stroke="rgb(244,206,60)" stroke-width="1" opacity="1" d="M 292 0 L 296 0.5 L 296 1000 L 292 999.5 L 292 0 Z "></path><path fill="rgb(244,206,60)" stroke="rgb(244,206,60)" stroke-width="1" opacity="1" d="M 298 0 L 305.5 0 L 306 0.5 L 306 1000 L 298.5 1000 L 298 999.5 L 298 0 Z "></path><path fill="rgb(244,206,60)" stroke="rgb(244,206,60)" stroke-width="1" opacity="1" d="M 497 0 L 514.5 0 L 515 0.5 L 515 1000 L 497.5 1000 L 497 999.5 L 497 0 Z "></path><path fill="rgb(244,206,60)" stroke="rgb(244,206,60)" stroke-width="1" opacity="1" d="M 518 0 L 522 0.5 L 522 1000 L 518 999.5 L 518 0 Z "></path><path fill="rgb(244,206,60)" stroke="rgb(244,206,60)" stroke-width="1" opacity="1" d="M 636 0 L 638 0.5 L 638 1000 L 636 999.5 L 636 0 Z "></path><path fill="rgb(244,206,60)" stroke="rgb(244,206,60)" stroke-width="1" opacity="1" d="M 672 0 L 679.5 0 L 680 0.5 L 680 1000 L 672.5 1000 L 672 999.5 L 672 0 Z "></path><path fill="rgb(244,206,60)" stroke="rgb(244,206,60)" stroke-width="1" opacity="1" d="M 777 0 L 785.5 0 L 786 0.5 L 786 1000 L 777.5 1000 L 777 999.5 L 777 0 Z "></path><path fill="rgb(244,206,60)" stroke="rgb(244,206,60)" stroke-width="1" opacity="1" d="M 829 0 L 831 0.5 L 831 1000 L 829 999.5 L 829 0 Z "></path><path fill="rgb(244,206,60)" stroke="rgb(244,206,60)" stroke-width="1" opacity="1" d="M 841 0 L 856.5 0 L 857 0.5 L 857 1000 L 841.5 1000 L 841 999.5 L 841 0 Z "></path><path fill="rgb(244,206,60)" stroke="rgb(244,206,60)" stroke-width="1" opacity="1" d="M 1051 0 L 1056 0.5 L 1056 1000 L 1051 999.5 L 1051 0 Z "></path><path fill="rgb(244,206,60)" stroke="rgb(244,206,60)" stroke-width="1" opacity="1" d="M 1076.5 0 L 1077 999.5 L 1076 999.5 L 1076.5 0 Z "></path><path fill="rgb(244,206,60)" stroke="rgb(244,206,60)" stroke-width="1" opacity="1" d="M 1081 0 L 1084 0.5 L 1084 1000 L 1081 999.5 L 1081 0 Z "></path><path fill="rgb(244,206,60)" stroke="rgb(244,206,60)" stroke-width="1" opacity="1" d="M 1196 0 L 1199 0.5 L 1199 1000 L 1196 999.5 L 1196 0 Z "></path><path fill="rgb(244,206,60)" stroke="rgb(244,206,60)" stroke-width="1" opacity="1" d="M 1236 0 L 1240 0.5 L 1240 1000 L 1236 999.5 L 1236 0 Z "></path><path fill="rgb(244,206,60)" stroke="rgb(244,206,60)" stroke-width="1" opacity="1" d="M 1242 0 L 1249.5 0 L 1250 0.5 L 1250 1000 L 1242.5 1000 L 1242 999.5 L 1242 0 Z "></path><path fill="rgb(244,206,60)" stroke="rgb(244,206,60)" stroke-width="1" opacity="1" d="M 1441 0 L 1458.5 0 L 1459 0.5 L 1459 1000 L 1441.5 1000 L 1441 999.5 L 1441 0 Z "></path><path fill="rgb(244,206,60)" stroke="rgb(244,206,60)" stroke-width="1" opacity="1" d="M 1462 0 L 1466 0.5 L 1466 1000 L 1462 999.5 L 1462 0 Z "></path><path fill="rgb(244,206,60)" stroke="rgb(244,206,60)" stroke-width="1" opacity="1" d="M 1548 0 L 1557.5 0 L 1558 0.5 L 1558 1000 L 1548.5 1000 L 1548 999.5 L 1548 0 Z "></path><path fill="rgb(244,206,60)" stroke="rgb(244,206,60)" stroke-width="1" opacity="1" d="M 1594 0 L 1599.5 0 L 1600 0.5 L 1600 1000 L 1594.5 1000 L 1594 999.5 L 1594 0 Z "></path><path fill="rgb(246,214,155)" stroke="rgb(246,214,155)" stroke-width="1" opacity="1" d="M 11.5 0 L 12 999.5 L 11 999.5 L 11.5 0 Z "></path><path fill="rgb(246,214,155)" stroke="rgb(246,214,155)" stroke-width="1" opacity="1" d="M 43.5 0 L 44 999.5 L 43 999.5 L 43.5 0 Z "></path><path fill="rgb(246,214,155)" stroke="rgb(246,214,155)" stroke-width="1" opacity="1" d="M 140 0 L 147.5 0 L 148 0.5 L 148 1000 L 140.5 1000 L 140 999.5 L 140 0 Z "></path><path fill="rgb(246,214,155)" stroke="rgb(246,214,155)" stroke-width="1" opacity="1" d="M 180 0 L 201.5 0 L 202 0.5 L 202 1000 L 180.5 1000 L 180 999.5 L 180 0 Z "></path><path fill="rgb(246,214,155)" stroke="rgb(246,214,155)" stroke-width="1" opacity="1" d="M 394 0 L 397 0.5 L 397 1000 L 394 999.5 L 394 0 Z "></path><path fill="rgb(246,214,155)" stroke="rgb(246,214,155)" stroke-width="1" opacity="1" d="M 416 0 L 429.5 0 L 430 0.5 L 430 1000 L 416.5 1000 L 416 999.5 L 416 0 Z "></path><path fill="rgb(246,214,155)" stroke="rgb(246,214,155)" stroke-width="1" opacity="1" d="M 522 0 L 526 0.5 L 526 1000 L 522 999.5 L 522 0 Z "></path><path fill="rgb(246,214,155)" stroke="rgb(246,214,155)" stroke-width="1" opacity="1" d="M 531 0 L 537.5 0 L 538 0.5 L 538 1000 L 531.5 1000 L 531 999.5 L 531 0 Z "></path><path fill="rgb(246,214,155)" stroke="rgb(246,214,155)" stroke-width="1" opacity="1" d="M 556 0 L 559 0.5 L 559 1000 L 556 999.5 L 556 0 Z "></path><path fill="rgb(246,214,155)" stroke="rgb(246,214,155)" stroke-width="1" opacity="1" d="M 635.5 0 L 636 999.5 L 635 999.5 L 635.5 0 Z "></path><path fill="rgb(246,214,155)" stroke="rgb(246,214,155)" stroke-width="1" opacity="1" d="M 680 0 L 692.5 0 L 693 0.5 L 693 1000 L 680.5 1000 L 680 999.5 L 680 0 Z "></path><path fill="rgb(246,214,155)" stroke="rgb(246,214,155)" stroke-width="1" opacity="1" d="M 694 0 L 753.5 0 L 754 0.5 L 754 1000 L 694.5 1000 L 694 999.5 L 694 0 Z "></path><path fill="rgb(246,214,155)" stroke="rgb(246,214,155)" stroke-width="1" opacity="1" d="M 955.5 0 L 956 999.5 L 955 999.5 L 955.5 0 Z "></path><path fill="rgb(246,214,155)" stroke="rgb(246,214,155)" stroke-width="1" opacity="1" d="M 987.5 0 L 988 999.5 L 987 999.5 L 987.5 0 Z "></path><path fill="rgb(246,214,155)" stroke="rgb(246,214,155)" stroke-width="1" opacity="1" d="M 1084 0 L 1091.5 0 L 1092 0.5 L 1092 1000 L 1084.5 1000 L 1084 999.5 L 1084 0 Z "></path><path fill="rgb(246,214,155)" stroke="rgb(246,214,155)" stroke-width="1" opacity="1" d="M 1124 0 L 1145.5 0 L 1146 0.5 L 1146 1000 L 1124.5 1000 L 1124 999.5 L 1124 0 Z "></path><path fill="rgb(246,214,155)" stroke="rgb(246,214,155)" stroke-width="1" opacity="1" d="M 1338 0 L 1341 0.5 L 1341 1000 L 1338 999.5 L 1338 0 Z "></path><path fill="rgb(246,214,155)" stroke="rgb(246,214,155)" stroke-width="1" opacity="1" d="M 1360 0 L 1373.5 0 L 1374 0.5 L 1374 1000 L 1360.5 1000 L 1360 999.5 L 1360 0 Z "></path><path fill="rgb(246,214,155)" stroke="rgb(246,214,155)" stroke-width="1" opacity="1" d="M 1466 0 L 1470 0.5 L 1470 1000 L 1466 999.5 L 1466 0 Z "></path><path fill="rgb(246,214,155)" stroke="rgb(246,214,155)" stroke-width="1" opacity="1" d="M 1504 0 L 1520.5 0 L 1521 0.5 L 1521 1000 L 1504.5 1000 L 1504 999.5 L 1504 0 Z "></path><path fill="rgb(18,111,141)" stroke="rgb(18,111,141)" stroke-width="1" opacity="1" d="M 45 0 L 103.5 0 L 104 0.5 L 104 1000 L 45.5 1000 L 45 999.5 L 45 0 Z "></path><path fill="rgb(18,111,141)" stroke="rgb(18,111,141)" stroke-width="1" opacity="1" d="M 208 0 L 247.5 0 L 248 0.5 L 248 1000 L 208.5 1000 L 208 999.5 L 208 0 Z "></path><path fill="rgb(18,111,141)" stroke="rgb(18,111,141)" stroke-width="1" opacity="1" d="M 339 0 L 390.5 0 L 391 0.5 L 391 1000 L 339.5 1000 L 339 999.5 L 339 0 Z "></path><path fill="rgb(18,111,141)" stroke="rgb(18,111,141)" stroke-width="1" opacity="1" d="M 564 0 L 631.5 0 L 632 0.5 L 632 1000 L 564.5 1000 L 564 999.5 L 564 0 Z "></path><path fill="rgb(18,111,141)" stroke="rgb(18,111,141)" stroke-width="1" opacity="1" d="M 862 0 L 877.5 0 L 878 0.5 L 878 1000 L 862.5 1000 L 862 999.5 L 862 0 Z "></path><path fill="rgb(18,111,141)" stroke="rgb(18,111,141)" stroke-width="1" opacity="1" d="M 879.5 0 L 880 999.5 L 879 999.5 L 879.5 0 Z "></path><path fill="rgb(18,111,141)" stroke="rgb(18,111,141)" stroke-width="1" opacity="1" d="M 989 0 L 1047.5 0 L 1048 0.5 L 1048 1000 L 989.5 1000 L 989 999.5 L 989 0 Z "></path><path fill="rgb(18,111,141)" stroke="rgb(18,111,141)" stroke-width="1" opacity="1" d="M 1152 0 L 1191.5 0 L 1192 0.5 L 1192 1000 L 1152.5 1000 L 1152 999.5 L 1152 0 Z "></path><path fill="rgb(18,111,141)" stroke="rgb(18,111,141)" stroke-width="1" opacity="1" d="M 1283 0 L 1334.5 0 L 1335 0.5 L 1335 1000 L 1283.5 1000 L 1283 999.5 L 1283 0 Z "></path><path fill="rgb(199,35,71)" stroke="rgb(199,35,71)" stroke-width="1" opacity="1" d="M 314 0 L 316 0.5 L 316 1000 L 314 999.5 L 314 0 Z "></path><path fill="rgb(199,35,71)" stroke="rgb(199,35,71)" stroke-width="1" opacity="1" d="M 322 0 L 326 0.5 L 326 1000 L 322 999.5 L 322 0 Z "></path><path fill="rgb(199,35,71)" stroke="rgb(199,35,71)" stroke-width="1" opacity="1" d="M 492.5 0 L 493 999.5 L 492 999.5 L 492.5 0 Z "></path><path fill="rgb(199,35,71)" stroke="rgb(199,35,71)" stroke-width="1" opacity="1" d="M 756.5 0 L 757 999.5 L 756 999.5 L 756.5 0 Z "></path><path fill="rgb(199,35,71)" stroke="rgb(199,35,71)" stroke-width="1" opacity="1" d="M 759 0 L 764 0.5 L 764 1000 L 759 999.5 L 759 0 Z "></path><path fill="rgb(199,35,71)" stroke="rgb(199,35,71)" stroke-width="1" opacity="1" d="M 772.5 0 L 773 999.5 L 772 999.5 L 772.5 0 Z "></path><path fill="rgb(199,35,71)" stroke="rgb(199,35,71)" stroke-width="1" opacity="1" d="M 891 0 L 893 0.5 L 893 1000 L 891 999.5 L 891 0 Z "></path><path fill="rgb(199,35,71)" stroke="rgb(199,35,71)" stroke-width="1" opacity="1" d="M 1258 0 L 1260 0.5 L 1260 1000 L 1258 999.5 L 1258 0 Z "></path><path fill="rgb(199,35,71)" stroke="rgb(199,35,71)" stroke-width="1" opacity="1" d="M 1266 0 L 1270 0.5 L 1270 1000 L 1266 999.5 L 1266 0 Z "></path><path fill="rgb(199,35,71)" stroke="rgb(199,35,71)" stroke-width="1" opacity="1" d="M 1436.5 0 L 1437 999.5 L 1436 999.5 L 1436.5 0 Z "></path><path fill="rgb(251,222,50)" stroke="rgb(251,222,50)" stroke-width="1" opacity="1" d="M 112 0 L 131.5 0 L 132 0.5 L 132 1000 L 112.5 1000 L 112 999.5 L 112 0 Z "></path><path fill="rgb(251,222,50)" stroke="rgb(251,222,50)" stroke-width="1" opacity="1" d="M 133 0 L 137 0.5 L 137 1000 L 133 999.5 L 133 0 Z "></path><path fill="rgb(251,222,50)" stroke="rgb(251,222,50)" stroke-width="1" opacity="1" d="M 255 0 L 291.5 0 L 292 0.5 L 292 1000 L 255.5 1000 L 255 999.5 L 255 0 Z "></path><path fill="rgb(251,222,50)" stroke="rgb(251,222,50)" stroke-width="1" opacity="1" d="M 515 0 L 518 0.5 L 518 1000 L 515 999.5 L 515 0 Z "></path><path fill="rgb(251,222,50)" stroke="rgb(251,222,50)" stroke-width="1" opacity="1" d="M 638.5 0 L 639 999.5 L 638 999.5 L 638.5 0 Z "></path><path fill="rgb(251,222,50)" stroke="rgb(251,222,50)" stroke-width="1" opacity="1" d="M 646 0 L 648 0.5 L 648 1000 L 646 999.5 L 646 0 Z "></path><path fill="rgb(251,222,50)" stroke="rgb(251,222,50)" stroke-width="1" opacity="1" d="M 787 0 L 817.5 0 L 818 0.5 L 818 1000 L 787.5 1000 L 787 999.5 L 787 0 Z "></path><path fill="rgb(251,222,50)" stroke="rgb(251,222,50)" stroke-width="1" opacity="1" d="M 1056 0 L 1075.5 0 L 1076 0.5 L 1076 1000 L 1056.5 1000 L 1056 999.5 L 1056 0 Z "></path><path fill="rgb(251,222,50)" stroke="rgb(251,222,50)" stroke-width="1" opacity="1" d="M 1077 0 L 1081 0.5 L 1081 1000 L 1077 999.5 L 1077 0 Z "></path><path fill="rgb(251,222,50)" stroke="rgb(251,222,50)" stroke-width="1" opacity="1" d="M 1199 0 L 1235.5 0 L 1236 0.5 L 1236 1000 L 1199.5 1000 L 1199 999.5 L 1199 0 Z "></path><path fill="rgb(251,222,50)" stroke="rgb(251,222,50)" stroke-width="1" opacity="1" d="M 1459 0 L 1462 0.5 L 1462 1000 L 1459 999.5 L 1459 0 Z "></path><path fill="rgb(251,222,50)" stroke="rgb(251,222,50)" stroke-width="1" opacity="1" d="M 1558 0 L 1593.5 0 L 1594 0.5 L 1594 1000 L 1558.5 1000 L 1558 999.5 L 1558 0 Z "></path><path fill="rgb(249,224,177)" stroke="rgb(249,224,177)" stroke-width="1" opacity="1" d="M 17 0 L 41.5 0 L 42 0.5 L 42 1000 L 17.5 1000 L 17 999.5 L 17 0 Z "></path><path fill="rgb(249,224,177)" stroke="rgb(249,224,177)" stroke-width="1" opacity="1" d="M 148 0 L 179.5 0 L 180 0.5 L 180 1000 L 148.5 1000 L 148 999.5 L 148 0 Z "></path><path fill="rgb(249,224,177)" stroke="rgb(249,224,177)" stroke-width="1" opacity="1" d="M 400 0 L 415.5 0 L 416 0.5 L 416 1000 L 400.5 1000 L 400 999.5 L 400 0 Z "></path><path fill="rgb(249,224,177)" stroke="rgb(249,224,177)" stroke-width="1" opacity="1" d="M 526 0 L 531 0.5 L 531 1000 L 526 999.5 L 526 0 Z "></path><path fill="rgb(249,224,177)" stroke="rgb(249,224,177)" stroke-width="1" opacity="1" d="M 538 0 L 544.5 0 L 545 0.5 L 545 1000 L 538.5 1000 L 538 999.5 L 538 0 Z "></path><path fill="rgb(249,224,177)" stroke="rgb(249,224,177)" stroke-width="1" opacity="1" d="M 546 0 L 554.5 0 L 555 0.5 L 555 1000 L 546.5 1000 L 546 999.5 L 546 0 Z "></path><path fill="rgb(249,224,177)" stroke="rgb(249,224,177)" stroke-width="1" opacity="1" d="M 693.5 0 L 694 999.5 L 693 999.5 L 693.5 0 Z "></path><path fill="rgb(249,224,177)" stroke="rgb(249,224,177)" stroke-width="1" opacity="1" d="M 961 0 L 985.5 0 L 986 0.5 L 986 1000 L 961.5 1000 L 961 999.5 L 961 0 Z "></path><path fill="rgb(249,224,177)" stroke="rgb(249,224,177)" stroke-width="1" opacity="1" d="M 1092 0 L 1123.5 0 L 1124 0.5 L 1124 1000 L 1092.5 1000 L 1092 999.5 L 1092 0 Z "></path><path fill="rgb(249,224,177)" stroke="rgb(249,224,177)" stroke-width="1" opacity="1" d="M 1344 0 L 1359.5 0 L 1360 0.5 L 1360 1000 L 1344.5 1000 L 1344 999.5 L 1344 0 Z "></path><path fill="rgb(249,224,177)" stroke="rgb(249,224,177)" stroke-width="1" opacity="1" d="M 1470 0 L 1503.5 0 L 1504 0.5 L 1504 1000 L 1470.5 1000 L 1470 999.5 L 1470 0 Z "></path><path fill="rgb(118,127,121)" stroke="rgb(118,127,121)" stroke-width="1" opacity="1" d="M 10.5 0 L 11 999.5 L 10 999.5 L 10.5 0 Z "></path><path fill="rgb(118,127,121)" stroke="rgb(118,127,121)" stroke-width="1" opacity="1" d="M 44.5 0 L 45 999.5 L 44 999.5 L 44.5 0 Z "></path><path fill="rgb(118,127,121)" stroke="rgb(118,127,121)" stroke-width="1" opacity="1" d="M 106.5 0 L 107 999.5 L 106 999.5 L 106.5 0 Z "></path><path fill="rgb(118,127,121)" stroke="rgb(118,127,121)" stroke-width="1" opacity="1" d="M 202 0 L 207.5 0 L 208 0.5 L 208 1000 L 202.5 1000 L 202 999.5 L 202 0 Z "></path><path fill="rgb(118,127,121)" stroke="rgb(118,127,121)" stroke-width="1" opacity="1" d="M 248 0 L 252 0.5 L 252 1000 L 248 999.5 L 248 0 Z "></path><path fill="rgb(118,127,121)" stroke="rgb(118,127,121)" stroke-width="1" opacity="1" d="M 392 0 L 394 0.5 L 394 1000 L 392 999.5 L 392 0 Z "></path><path fill="rgb(118,127,121)" stroke="rgb(118,127,121)" stroke-width="1" opacity="1" d="M 559 0 L 562 0.5 L 562 1000 L 559 999.5 L 559 0 Z "></path><path fill="rgb(118,127,121)" stroke="rgb(118,127,121)" stroke-width="1" opacity="1" d="M 633 0 L 635 0.5 L 635 1000 L 633 999.5 L 633 0 Z "></path><path fill="rgb(118,127,121)" stroke="rgb(118,127,121)" stroke-width="1" opacity="1" d="M 754.5 0 L 755 999.5 L 754 999.5 L 754.5 0 Z "></path><path fill="rgb(118,127,121)" stroke="rgb(118,127,121)" stroke-width="1" opacity="1" d="M 857 0 L 862 0.5 L 862 1000 L 857 999.5 L 857 0 Z "></path><path fill="rgb(118,127,121)" stroke="rgb(118,127,121)" stroke-width="1" opacity="1" d="M 878.5 0 L 879 999.5 L 878 999.5 L 878.5 0 Z "></path><path fill="rgb(118,127,121)" stroke="rgb(118,127,121)" stroke-width="1" opacity="1" d="M 880 0 L 883 0.5 L 883 1000 L 880 999.5 L 880 0 Z "></path><path fill="rgb(118,127,121)" stroke="rgb(118,127,121)" stroke-width="1" opacity="1" d="M 954.5 0 L 955 999.5 L 954 999.5 L 954.5 0 Z "></path><path fill="rgb(118,127,121)" stroke="rgb(118,127,121)" stroke-width="1" opacity="1" d="M 988.5 0 L 989 999.5 L 988 999.5 L 988.5 0 Z "></path><path fill="rgb(118,127,121)" stroke="rgb(118,127,121)" stroke-width="1" opacity="1" d="M 1050.5 0 L 1051 999.5 L 1050 999.5 L 1050.5 0 Z "></path><path fill="rgb(118,127,121)" stroke="rgb(118,127,121)" stroke-width="1" opacity="1" d="M 1146 0 L 1151.5 0 L 1152 0.5 L 1152 1000 L 1146.5 1000 L 1146 999.5 L 1146 0 Z "></path><path fill="rgb(118,127,121)" stroke="rgb(118,127,121)" stroke-width="1" opacity="1" d="M 1192 0 L 1196 0.5 L 1196 1000 L 1192 999.5 L 1192 0 Z "></path><path fill="rgb(118,127,121)" stroke="rgb(118,127,121)" stroke-width="1" opacity="1" d="M 1336 0 L 1338 0.5 L 1338 1000 L 1336 999.5 L 1336 0 Z "></path><path fill="rgb(118,127,121)" stroke="rgb(118,127,121)" stroke-width="1" opacity="1" d="M 1521.5 0 L 1522 999.5 L 1521 999.5 L 1521.5 0 Z "></path><path fill="rgb(199,33,76)" stroke="rgb(199,33,76)" stroke-width="1" opacity="1" d="M 319 0 L 322 0.5 L 322 1000 L 319 999.5 L 319 0 Z "></path><path fill="rgb(199,33,76)" stroke="rgb(199,33,76)" stroke-width="1" opacity="1" d="M 491.5 0 L 492 999.5 L 491 999.5 L 491.5 0 Z "></path><path fill="rgb(199,33,76)" stroke="rgb(199,33,76)" stroke-width="1" opacity="1" d="M 1263 0 L 1266 0.5 L 1266 1000 L 1263 999.5 L 1263 0 Z "></path><path fill="rgb(199,33,76)" stroke="rgb(199,33,76)" stroke-width="1" opacity="1" d="M 1435.5 0 L 1436 999.5 L 1435 999.5 L 1435.5 0 Z "></path><path fill="rgb(247,221,48)" stroke="rgb(247,221,48)" stroke-width="1" opacity="1" d="M 296 0 L 298 0.5 L 298 1000 L 296 999.5 L 296 0 Z "></path><path fill="rgb(247,221,48)" stroke="rgb(247,221,48)" stroke-width="1" opacity="1" d="M 639 0 L 645.5 0 L 646 0.5 L 646 1000 L 639.5 1000 L 639 999.5 L 639 0 Z "></path><path fill="rgb(247,221,48)" stroke="rgb(247,221,48)" stroke-width="1" opacity="1" d="M 648 0 L 671.5 0 L 672 0.5 L 672 1000 L 648.5 1000 L 648 999.5 L 648 0 Z "></path><path fill="rgb(247,221,48)" stroke="rgb(247,221,48)" stroke-width="1" opacity="1" d="M 786.5 0 L 787 999.5 L 786 999.5 L 786.5 0 Z "></path><path fill="rgb(247,221,48)" stroke="rgb(247,221,48)" stroke-width="1" opacity="1" d="M 818 0 L 828.5 0 L 829 0.5 L 829 1000 L 818.5 1000 L 818 999.5 L 818 0 Z "></path><path fill="rgb(247,221,48)" stroke="rgb(247,221,48)" stroke-width="1" opacity="1" d="M 831 0 L 840.5 0 L 841 0.5 L 841 1000 L 831.5 1000 L 831 999.5 L 831 0 Z "></path><path fill="rgb(247,221,48)" stroke="rgb(247,221,48)" stroke-width="1" opacity="1" d="M 1240 0 L 1242 0.5 L 1242 1000 L 1240 999.5 L 1240 0 Z "></path><path fill="rgb(244,225,176)" stroke="rgb(244,225,176)" stroke-width="1" opacity="1" d="M 12 0 L 17 0.5 L 17 1000 L 12 999.5 L 12 0 Z "></path><path fill="rgb(244,225,176)" stroke="rgb(244,225,176)" stroke-width="1" opacity="1" d="M 42.5 0 L 43 999.5 L 42 999.5 L 42.5 0 Z "></path><path fill="rgb(244,225,176)" stroke="rgb(244,225,176)" stroke-width="1" opacity="1" d="M 397 0 L 400 0.5 L 400 1000 L 397 999.5 L 397 0 Z "></path><path fill="rgb(244,225,176)" stroke="rgb(244,225,176)" stroke-width="1" opacity="1" d="M 545.5 0 L 546 999.5 L 545 999.5 L 545.5 0 Z "></path><path fill="rgb(244,225,176)" stroke="rgb(244,225,176)" stroke-width="1" opacity="1" d="M 555.5 0 L 556 999.5 L 555 999.5 L 555.5 0 Z "></path><path fill="rgb(244,225,176)" stroke="rgb(244,225,176)" stroke-width="1" opacity="1" d="M 956 0 L 961 0.5 L 961 1000 L 956 999.5 L 956 0 Z "></path><path fill="rgb(244,225,176)" stroke="rgb(244,225,176)" stroke-width="1" opacity="1" d="M 986.5 0 L 987 999.5 L 986 999.5 L 986.5 0 Z "></path><path fill="rgb(244,225,176)" stroke="rgb(244,225,176)" stroke-width="1" opacity="1" d="M 1341 0 L 1344 0.5 L 1344 1000 L 1341 999.5 L 1341 0 Z "></path><path fill="rgb(104,90,123)" stroke="rgb(104,90,123)" stroke-width="1" opacity="1" d="M 104 0 L 106 0.5 L 106 1000 L 104 999.5 L 104 0 Z "></path><path fill="rgb(104,90,123)" stroke="rgb(104,90,123)" stroke-width="1" opacity="1" d="M 335 0 L 339 0.5 L 339 1000 L 335 999.5 L 335 0 Z "></path><path fill="rgb(104,90,123)" stroke="rgb(104,90,123)" stroke-width="1" opacity="1" d="M 391.5 0 L 392 999.5 L 391 999.5 L 391.5 0 Z "></path><path fill="rgb(104,90,123)" stroke="rgb(104,90,123)" stroke-width="1" opacity="1" d="M 562 0 L 564 0.5 L 564 1000 L 562 999.5 L 562 0 Z "></path><path fill="rgb(104,90,123)" stroke="rgb(104,90,123)" stroke-width="1" opacity="1" d="M 632.5 0 L 633 999.5 L 632 999.5 L 632.5 0 Z "></path><path fill="rgb(104,90,123)" stroke="rgb(104,90,123)" stroke-width="1" opacity="1" d="M 1048 0 L 1050 0.5 L 1050 1000 L 1048 999.5 L 1048 0 Z "></path><path fill="rgb(104,90,123)" stroke="rgb(104,90,123)" stroke-width="1" opacity="1" d="M 1279 0 L 1283 0.5 L 1283 1000 L 1279 999.5 L 1279 0 Z "></path><path fill="rgb(104,90,123)" stroke="rgb(104,90,123)" stroke-width="1" opacity="1" d="M 1335.5 0 L 1336 999.5 L 1335 999.5 L 1335.5 0 Z "></path></svg>